<?xml version="1.0" encoding="utf-8"?>
<!-- Svg Vector Icons : http://www.onlinewebfonts.com/icon -->
<!DOCTYPE svg PUBLIC "-//W3C//DTD SVG 1.1//EN" "http://www.w3.org/Graphics/SVG/1.1/DTD/svg11.dtd">
<svg version="1.1" xmlns="http://www.w3.org/2000/svg" xmlns:xlink="http://www.w3.org/1999/xlink" x="0px" y="0px" viewBox="0 0 256 256" enable-background="new 0 0 256 256" xml:space="preserve">
<metadata> Svg Vector Icons : http://www.onlinewebfonts.com/icon </metadata>
<g><g><path fill="#000000" d="M221.9,69.1h-47.8l54.3-53.4c2.4-2.3,2.4-6.1,0.1-8.4c-2.3-2.4-6.1-2.4-8.4-0.1l-63,61.9h-55.9L38.3,7.2c-2.3-2.3-6.1-2.3-8.4,0.1c-2.3,2.4-2.3,6.1,0.1,8.4l54.3,53.4H34.1C20.8,69.1,10,79.9,10,93.2v133.3c0,13.3,10.8,24.1,24.1,24.1h187.8c13.3,0,24.1-10.8,24.1-24.1V93.2C246,79.9,235.2,69.1,221.9,69.1z M234.1,226.5c0,6.7-5.5,12.2-12.2,12.2H34.1c-6.8,0-12.2-5.5-12.2-12.2V93.2c0-6.7,5.5-12.2,12.2-12.2h187.8c6.8,0,12.2,5.5,12.2,12.2V226.5L234.1,226.5z"/><path fill="#000000" d="M171.9,155.4l-72-41.6c-1.9-1.1-4.1-1.1-6,0c-1.9,1.1-3,3-3,5.2v83.1c0,2.1,1.1,4.1,3,5.2c0.9,0.5,2,0.8,3,0.8c1,0,2.1-0.3,3-0.8l72-41.5c1.8-1.1,3-3,3-5.2S173.7,156.4,171.9,155.4z M102.9,191.8v-62.5l54.1,31.3L102.9,191.8z"/></g></g>
</svg>